<svg width="2762" height="2762" viewBox="0 0 2762 2762" fill="none" xmlns="http://www.w3.org/2000/svg">
<path d="M2599.18 517.875V1743.51C2599.18 1748.66 2598.17 1753.76 2596.19 1758.51C2594.22 1763.27 2591.33 1767.58 2587.69 1771.22C2584.05 1774.86 2579.72 1777.74 2574.96 1779.7C2570.21 1781.67 2565.11 1782.67 2559.96 1782.66H1569.64C1559.26 1782.66 1549.3 1778.54 1541.96 1771.2C1534.62 1763.85 1530.49 1753.9 1530.49 1743.51V1717.83C1530.49 1707.46 1534.6 1697.52 1541.91 1690.17C1549.22 1682.82 1559.14 1678.66 1569.51 1678.61C1625.51 1678.61 1680.82 1682.82 1735.99 1682.82C1803.79 1682.82 1875.74 1678.61 1944.86 1686.34C1981.8 1690.41 2017.99 1707.05 2058.04 1713.96C2172.65 1733.01 2289.75 1731.49 2403.84 1709.47C2411.83 1707.97 2419.15 1704.02 2424.79 1698.17C2430.44 1692.31 2434.12 1684.85 2435.32 1676.81C2447.55 1592.57 2454.66 1503.22 2464.95 1416.98C2465.72 1410.6 2464.91 1404.14 2462.59 1398.16C2460.28 1392.17 2456.53 1386.85 2451.67 1382.65C2446.81 1378.46 2441 1375.52 2434.74 1374.1C2428.49 1372.68 2421.97 1372.82 2415.78 1374.51C2336.86 1396.12 2259.45 1417.8 2181.36 1400.96C2042.84 1371.13 1904.68 1191.53 1986.09 1012.34C2002.48 980.028 2024.51 950.894 2051.13 926.306C2077.54 903.058 2107.64 884.387 2140.2 871.066C2224.72 839.027 2324.64 852.768 2402.59 882.321C2408.96 884.754 2415.86 885.479 2422.59 884.424C2429.33 883.368 2435.67 880.569 2440.99 876.304C2446.31 872.038 2450.42 866.456 2452.92 860.11C2455.41 853.765 2456.2 846.877 2455.21 840.131C2442.64 753.036 2430.28 665.734 2418.13 578.225C2416.9 570.221 2413.24 562.788 2407.65 556.933C2402.05 551.079 2394.79 547.086 2386.85 545.495C2289.42 524.78 2190.27 520.637 2092.22 540.938C2060.24 547.843 2030.83 561.653 1999.83 564.967C1960.61 569.041 1918.62 566.763 1879.82 568.489C1780.94 572.839 1678.54 578.708 1570.54 581.401C1565.33 581.521 1560.14 580.596 1555.29 578.682C1550.44 576.767 1546.03 573.901 1542.3 570.252C1538.57 566.604 1535.62 562.247 1533.6 557.438C1531.58 552.628 1530.55 547.464 1530.56 542.25V489.358C1530.22 484.386 1530.01 479.621 1533.95 479H2560.03C2570.36 479 2580.28 483.087 2587.62 490.369C2594.95 497.652 2599.11 507.539 2599.18 517.875Z" fill="white"/>
<path d="M1732.6 1548.72C1742.97 1560.45 1754.09 1571.5 1765.88 1581.8C1767.8 1583.56 1769.14 1585.86 1769.74 1588.39C1770.34 1590.92 1770.17 1593.58 1769.25 1596.01C1768.33 1598.45 1766.7 1600.55 1764.58 1602.06C1762.45 1603.56 1759.92 1604.39 1757.32 1604.45C1685.3 1606.45 1614.94 1610.11 1544.16 1613.49C1542.39 1613.59 1540.61 1613.33 1538.94 1612.72C1537.26 1612.12 1535.73 1611.17 1534.44 1609.95C1533.15 1608.73 1532.12 1607.25 1531.42 1605.62C1530.71 1603.98 1530.35 1602.22 1530.35 1600.44V1495.14C1530.35 1493.3 1530.74 1491.49 1531.49 1489.82C1532.24 1488.14 1533.33 1486.64 1534.7 1485.42C1536.07 1484.2 1537.69 1483.29 1539.44 1482.74C1541.19 1482.19 1543.03 1482.01 1544.85 1482.23C1594.57 1487.96 1641.04 1472.56 1677.64 1486.85C1701.32 1496.04 1716.65 1530.22 1732.46 1549" fill="white"/>
<path d="M1783.84 664.744C1769.2 698.579 1735.5 713.562 1713.82 740.285C1711.92 742.558 1709.57 744.417 1706.92 745.747C1704.27 747.077 1701.38 747.85 1698.42 748.018C1651.61 750.711 1602.44 751.126 1552.52 750.849C1546.66 750.813 1541.06 748.462 1536.94 744.309C1532.81 740.156 1530.49 734.539 1530.49 728.684V674.825C1530.51 671.834 1531.13 668.877 1532.31 666.13C1533.5 663.384 1535.23 660.905 1537.39 658.842C1539.56 656.779 1542.12 655.174 1544.92 654.124C1547.72 653.074 1550.7 652.599 1553.69 652.729C1634.96 655.699 1730.46 630.288 1783.84 664.744Z" fill="white"/>
<path d="M1629.58 1414.56H1543.27C1539.81 1414.56 1536.49 1413.18 1534.04 1410.74C1531.59 1408.29 1530.22 1404.97 1530.22 1401.51V1255.74C1530.22 1252.28 1531.59 1248.95 1534.04 1246.49C1536.48 1244.03 1539.8 1242.64 1543.27 1242.62H1571.51C1574.42 1242.61 1577.24 1243.57 1579.55 1245.34C1581.85 1247.12 1583.49 1249.61 1584.21 1252.43C1598.02 1307.67 1606.52 1368.36 1629.58 1414.56Z" fill="white"/>
<path d="M1636.49 850.489C1635.17 882.528 1618.95 899.653 1608.87 923.13C1607.56 926.289 1605.43 929.04 1602.7 931.093C1599.96 933.146 1596.73 934.426 1593.33 934.799C1579.52 936.111 1564.4 935.766 1550.38 936.732C1547.74 936.952 1545.09 936.622 1542.59 935.764C1540.09 934.906 1537.79 933.539 1535.84 931.748C1533.9 929.957 1532.34 927.781 1531.28 925.359C1530.21 922.937 1529.67 920.32 1529.67 917.675V845.034C1529.65 840.027 1531.6 835.213 1535.1 831.634C1538.6 828.055 1543.37 825.998 1548.38 825.907C1586.36 825.217 1620.88 828.117 1635.93 850.489" fill="white"/>
<path d="M1545.34 1029.4H1563.01C1565.04 1029.4 1567.04 1029.82 1568.9 1030.63C1570.76 1031.43 1572.43 1032.61 1573.82 1034.08C1575.21 1035.55 1576.28 1037.29 1576.98 1039.19C1577.67 1041.1 1577.97 1043.12 1577.86 1045.14C1576 1076.7 1571.51 1105.49 1571.44 1138.84C1571.39 1142.35 1570.09 1145.72 1567.77 1148.36C1565.46 1150.99 1562.28 1152.71 1558.8 1153.2C1555.28 1153.76 1551.9 1154.65 1548.79 1155.41C1546.61 1155.93 1544.34 1155.96 1542.15 1155.47C1539.96 1154.99 1537.91 1154.02 1536.14 1152.63C1534.38 1151.24 1532.96 1149.47 1531.98 1147.46C1531 1145.44 1530.49 1143.22 1530.49 1140.98V1044.31C1530.48 1042.36 1530.86 1040.42 1531.6 1038.61C1532.34 1036.8 1533.44 1035.16 1534.82 1033.77C1536.2 1032.38 1537.84 1031.28 1539.64 1030.53C1541.45 1029.78 1543.38 1029.4 1545.34 1029.4Z" fill="white"/>
<path d="M1410.62 1015.66C1418.64 1063 1424.2 1110.74 1427.26 1158.66C1427.33 1159.73 1427.18 1160.8 1426.82 1161.81C1426.47 1162.82 1425.91 1163.75 1425.19 1164.54C1424.47 1165.33 1423.6 1165.97 1422.63 1166.42C1421.65 1166.87 1420.6 1167.12 1419.53 1167.15C1307.74 1170.05 1107.08 1179.3 1065.65 1180.96C1063.66 1181.05 1061.7 1180.39 1060.17 1179.11C1058.64 1177.84 1057.64 1176.03 1057.36 1174.06L1055.29 1152.44L1046.11 1175.92C1045.56 1177.34 1044.62 1178.57 1043.4 1179.46C1042.17 1180.36 1040.72 1180.88 1039.2 1180.96C1000.47 1182.55 753.059 1192.77 618.688 1197.74C615.264 1197.93 611.86 1197.12 608.883 1195.42C605.907 1193.71 603.485 1191.19 601.909 1188.14V1187.8C601.112 1186.29 599.852 1185.09 598.316 1184.35C596.779 1183.62 595.048 1183.4 593.377 1183.72C591.706 1184.05 590.183 1184.9 589.034 1186.16C587.885 1187.41 587.169 1189 586.994 1190.7C585.613 1204.51 586.994 1219.22 585.544 1232.13C568.834 1383.62 547.912 1559.15 531.478 1716.93C531.211 1718.84 530.26 1720.6 528.8 1721.87C527.341 1723.14 525.471 1723.83 523.537 1723.83H139.136C137.993 1723.84 136.861 1723.61 135.818 1723.14C134.775 1722.68 133.845 1721.99 133.091 1721.13C132.337 1720.27 131.777 1719.26 131.45 1718.17C131.123 1717.07 131.036 1715.92 131.195 1714.79C198.795 1335.01 260.042 948.333 327.987 569.179C328.018 568.719 328.018 568.258 327.987 567.798V558.131H670.959C672.76 558.114 674.517 558.694 675.954 559.781C677.39 560.868 678.426 562.4 678.9 564.138C682.49 577.948 689.464 588.927 692.71 603.014C692.972 604.19 692.963 605.411 692.683 606.584C692.404 607.757 691.861 608.851 691.095 609.782C690.33 610.714 689.362 611.459 688.266 611.961C687.17 612.464 685.974 612.71 684.769 612.681C657.701 612.266 637.47 618.55 608.814 616.616C630.288 624.143 664.951 618.481 692.71 619.724L699.615 624.972C718.327 674.204 737.385 723.022 752.99 775.293L745.671 785.651C698.234 788.206 651.625 791.658 601.84 792.003C653.438 797.475 705.322 799.781 757.202 798.908C758.853 798.903 760.466 799.402 761.823 800.341C763.181 801.279 764.219 802.61 764.798 804.156C783.234 853.113 799.323 904.072 818.864 952.269C819.894 954.926 820.304 957.784 820.062 960.623C819.82 963.463 818.932 966.21 817.467 968.655C816.001 971.099 813.997 973.177 811.606 974.729C809.216 976.281 806.502 977.266 803.673 977.61C794.765 978.715 785.651 979.612 776.467 980.372C774.477 980.613 772.65 981.593 771.346 983.116C770.043 984.64 769.358 986.597 769.428 988.6C769.497 990.604 770.315 992.509 771.721 993.939C773.127 995.368 775.017 996.219 777.02 996.322C793.108 996.737 808.921 997.358 824.388 998.394C831.293 996.737 834.331 998.394 836.195 1001.71C836.873 1002.95 837.872 1003.98 839.087 1004.7C840.302 1005.42 841.688 1005.8 843.1 1005.8C844.513 1005.8 845.899 1005.42 847.114 1004.7C848.329 1003.98 849.327 1002.95 850.005 1001.71C850.921 1000.27 852.274 999.165 853.866 998.556C855.457 997.947 857.203 997.866 858.844 998.325C1041.07 1005.64 1227.85 1008.48 1410.35 1015.59" fill="white"/>
<path d="M1390.05 819.554C1392.33 865.472 1400.27 905.521 1403.86 950.266C1223.01 957.792 1042.45 965.595 866.095 977.886C856.29 968.219 868.65 951.992 873 940.046C886.258 903.519 904.349 853.458 921.335 816.24C921.335 811.337 920.714 806.434 924.857 805.882C1082.08 808.437 1237.86 812.787 1390.53 819.692" fill="white"/>
<path d="M1366.15 637.193C1371.61 670.13 1376.17 703.965 1378.72 739.802L1361.94 758.1C1225.84 762.174 1092.65 769.01 960.347 776.743C957.525 776.905 954.706 776.371 952.138 775.188C949.57 774.005 947.332 772.21 945.621 769.96C943.909 767.71 942.777 765.074 942.322 762.283C941.868 759.493 942.106 756.634 943.015 753.957C955.734 714.184 970.673 675.156 987.76 637.055L1004.06 627.388C1122.61 632.912 1246.7 632.636 1366.15 637.193Z" fill="white"/>
<path d="M1359.39 558.131V578.846C1350.96 591.965 1332.32 588.306 1317.96 589.134C1217.01 594.658 1104.8 596.039 999.499 599.492C1007.79 585.682 1008.06 564.552 1020.21 554.747C1132.08 557.026 1253.12 550.121 1359.46 558.2" fill="white"/>
<path d="M1030.43 1215.28C1005.09 1285.57 976.782 1353.38 948.333 1420.22L935.973 1429.34C862.504 1435.34 780.473 1432.79 706.106 1437.97L691.191 1427.95C667.783 1357.39 639.197 1292 615.65 1221.5C614.922 1219.24 614.744 1216.84 615.133 1214.5C615.522 1212.16 616.466 1209.95 617.886 1208.05C619.306 1206.15 621.161 1204.61 623.295 1203.58C625.429 1202.54 627.78 1202.03 630.151 1202.09C764.177 1205.82 898.617 1209.41 1030.64 1215.35" fill="white"/>
<path d="M934.593 1455.92C913.878 1510.47 892.334 1563.91 870.445 1617.22L854.425 1627.92H778.885L762.658 1616.32C745.119 1566.95 724.404 1520.76 708.523 1469.66C707.684 1466.99 707.503 1464.16 707.994 1461.41C708.485 1458.66 709.634 1456.07 711.343 1453.86C713.053 1451.65 715.271 1449.88 717.81 1448.72C720.349 1447.55 723.132 1447.01 725.923 1447.15C794.559 1451.09 867.683 1450.26 934.593 1455.92Z" fill="white"/>
<path d="M859.12 1645.05C853.941 1663.69 842.893 1680.88 835.16 1700.29C830.05 1713.2 828.255 1729.56 821.35 1741.72L808.023 1739.99C798.839 1709.06 785.03 1682.75 776.122 1651.61L783.648 1642.29C808.99 1643.18 830.879 1647.67 859.189 1645.53" fill="white"/>
<path d="M1481.54 1752.42L1132.42 1761.4C1127.93 1761.5 1123.57 1759.93 1120.18 1756.99C1116.78 1754.06 1114.6 1749.97 1114.05 1745.51L1108.74 1673.7C1108.42 1671.12 1108.66 1668.49 1109.45 1666.01C1110.24 1663.52 1111.55 1661.23 1113.3 1659.3C1115.05 1657.37 1117.19 1655.84 1119.58 1654.81C1121.98 1653.78 1124.57 1653.27 1127.17 1653.33L1477.67 1662.31C1481.86 1662.43 1485.89 1664 1489.05 1666.76C1492.21 1669.52 1494.32 1673.29 1495 1677.43L1499.08 1731.36C1499.5 1733.93 1499.37 1736.55 1498.69 1739.06C1498.01 1741.57 1496.8 1743.91 1495.13 1745.91C1493.47 1747.91 1491.39 1749.52 1489.05 1750.65C1486.7 1751.77 1484.14 1752.38 1481.54 1752.42Z" fill="white"/>
<path d="M1456.54 1613.84L1127.17 1622.68C1121.35 1622.83 1115.69 1620.78 1111.31 1616.94C1106.93 1613.1 1104.16 1607.75 1103.56 1601.96L1089.75 1481.74C1089.36 1478.4 1089.71 1475 1090.77 1471.8C1091.83 1468.6 1093.57 1465.67 1095.88 1463.21C1098.18 1460.75 1101 1458.83 1104.13 1457.57C1107.25 1456.31 1110.62 1455.75 1113.98 1455.92L1444.04 1473.32C1449.4 1473.59 1454.49 1475.71 1458.45 1479.33C1462.4 1482.95 1464.98 1487.83 1465.72 1493.14L1479.19 1587.32C1479.67 1590.59 1479.45 1593.92 1478.54 1597.1C1477.62 1600.27 1476.04 1603.22 1473.9 1605.73C1471.75 1608.24 1469.09 1610.27 1466.1 1611.66C1463.1 1613.06 1459.84 1613.8 1456.54 1613.84Z" fill="white"/>
<path d="M1436.24 1247.18L1458.27 1387.01C1458.82 1390.5 1458.62 1394.07 1457.68 1397.48C1456.74 1400.89 1455.09 1404.06 1452.82 1406.78C1450.56 1409.5 1447.75 1411.7 1444.57 1413.25C1441.39 1414.79 1437.91 1415.64 1434.38 1415.73L1108.32 1424.36C1102.22 1424.49 1096.29 1422.39 1091.63 1418.45C1086.98 1414.5 1083.92 1408.99 1083.05 1402.96L1060.61 1246.01C1060.11 1242.42 1060.39 1238.77 1061.44 1235.3C1062.49 1231.84 1064.29 1228.64 1066.7 1225.94C1069.11 1223.24 1072.08 1221.1 1075.41 1219.66C1078.73 1218.23 1082.33 1217.53 1085.95 1217.63L1412.28 1226.19C1418.09 1226.36 1423.66 1228.54 1428.04 1232.37C1432.41 1236.21 1435.31 1241.44 1436.24 1247.18Z" fill="white"/>
<path d="M323.155 2217.06V2082.76L270.401 2182.74H248.581L196.103 2082.76V2217.06H156.054V2012.53H198.934L259.145 2128.6L319.978 2012.53H362.582V2217.06H323.155Z" fill="white"/>
<path d="M477.274 2217.06V2012.53H516.978V2217.06H477.274Z" fill="white"/>
<path d="M619.241 2112.93C619.29 2087.2 628.773 2062.39 645.894 2043.19C655.201 2032.77 666.657 2024.49 679.471 2018.92C692.286 2013.36 706.155 2010.63 720.123 2010.94C737.224 2010.48 754.118 2014.76 768.941 2023.3C781.996 2030.86 792.557 2042.07 799.323 2055.55L769.079 2076.61C766.024 2069.52 761.283 2063.29 755.269 2058.45C749.92 2054.16 743.804 2050.92 737.247 2048.92C731.22 2047.11 724.967 2046.15 718.673 2046.09C709.606 2045.87 700.629 2047.93 692.572 2052.1C685.354 2056 679.065 2061.42 674.135 2067.98C669.199 2074.57 665.459 2081.98 663.087 2089.87C660.629 2097.78 659.372 2106.02 659.359 2114.31C659.325 2123.1 660.772 2131.83 663.64 2140.13C666.372 2148.19 670.51 2155.69 675.862 2162.3C681.083 2168.66 687.574 2173.86 694.919 2177.56C702.457 2181.35 710.789 2183.29 719.225 2183.22C725.703 2183.14 732.13 2182.07 738.283 2180.05C744.903 2177.83 751.059 2174.41 756.443 2169.96C762.344 2165.02 767.063 2158.81 770.253 2151.8L802.499 2170.79C798.231 2181.06 791.323 2190.02 782.475 2196.76C773.317 2203.86 762.988 2209.3 751.955 2212.84C741.13 2216.45 729.804 2218.31 718.396 2218.37C704.585 2218.66 690.904 2215.65 678.486 2209.6C666.58 2203.66 655.953 2195.45 647.206 2185.43C638.344 2175.4 631.331 2163.87 626.491 2151.39C621.666 2139.14 619.206 2126.09 619.241 2112.93Z" fill="white"/>
<path d="M901.31 2217.06V2012.53H992.041C1000.95 2012.43 1009.77 2014.4 1017.8 2018.26C1025.65 2022.04 1032.68 2027.32 1038.51 2033.8C1044.4 2040.2 1049.08 2047.62 1052.32 2055.69C1055.46 2063.58 1057.08 2071.99 1057.09 2080.48C1057.11 2088.94 1055.59 2097.34 1052.6 2105.27C1049.71 2112.94 1045.35 2119.98 1039.75 2125.98C1034.28 2131.9 1027.62 2136.6 1020.21 2139.79L1066.89 2216.71H1023.11L980.993 2148.15H941.29V2216.71L901.31 2217.06ZM941.082 2113.48H990.867C995.674 2113.57 1000.36 2111.98 1004.13 2108.99C1008.13 2105.81 1011.3 2101.72 1013.38 2097.05C1015.73 2091.79 1016.9 2086.09 1016.83 2080.34C1016.93 2074.42 1015.52 2068.58 1012.76 2063.35C1010.37 2058.68 1006.92 2054.63 1002.68 2051.54C998.863 2048.71 994.237 2047.18 989.486 2047.19H941.151L941.082 2113.48Z" fill="white"/>
<path d="M1251.05 2218.51C1237.01 2218.65 1223.13 2215.61 1210.45 2209.6C1198.48 2204 1187.79 2196.01 1179.03 2186.12C1170.12 2176.35 1163.1 2165.02 1158.31 2152.7C1153.64 2140.55 1151.29 2127.61 1151.41 2114.59C1151.36 2101.18 1153.97 2087.9 1159.07 2075.51C1163.94 2063.33 1170.96 2052.13 1179.79 2042.43C1188.76 2032.7 1199.58 2024.86 1211.62 2019.37C1224.19 2013.65 1237.86 2010.75 1251.67 2010.87C1265.68 2010.7 1279.55 2013.75 1292.2 2019.78C1304.12 2025.55 1314.73 2033.68 1323.41 2043.67C1331.99 2053.56 1338.76 2064.87 1343.44 2077.09C1348.06 2089.24 1350.4 2102.14 1350.34 2115.14C1350.39 2128.4 1347.91 2141.55 1343.02 2153.88C1338.21 2166.1 1331.18 2177.33 1322.31 2187.02C1313.36 2196.68 1302.59 2204.47 1290.61 2209.95C1278.19 2215.58 1264.7 2218.5 1251.05 2218.51ZM1191.67 2114.93C1191.66 2123.63 1193.03 2132.28 1195.74 2140.55C1198.27 2148.54 1202.22 2156 1207.41 2162.58C1212.63 2169.19 1219.31 2174.51 1226.93 2178.11C1234.55 2181.7 1242.9 2183.48 1251.32 2183.29C1260.23 2183.5 1269.04 2181.46 1276.94 2177.35C1284.17 2173.49 1290.5 2168.15 1295.52 2161.68C1300.67 2155.05 1304.54 2147.5 1306.91 2139.45C1309.36 2131.43 1310.62 2123.1 1310.64 2114.73C1310.67 2106.05 1309.32 2097.43 1306.63 2089.18C1304.06 2081.23 1300.05 2073.81 1294.83 2067.29C1289.73 2060.94 1283.35 2055.74 1276.11 2052.03C1268.32 2048.19 1259.73 2046.28 1251.05 2046.44C1242.29 2046.26 1233.63 2048.28 1225.85 2052.3C1218.57 2056.12 1212.19 2061.44 1207.13 2067.91C1201.97 2074.43 1198.06 2081.85 1195.6 2089.8C1192.98 2097.87 1191.66 2106.31 1191.67 2114.79V2114.93Z" fill="white"/>
<path d="M1582.35 2112.93C1582.31 2087.19 1591.81 2062.35 1609 2043.19C1618.3 2032.78 1629.75 2024.5 1642.55 2018.94C1655.35 2013.37 1669.21 2010.64 1683.16 2010.94C1700.26 2010.48 1717.16 2014.76 1731.98 2023.3C1745.05 2030.84 1755.62 2042.05 1762.36 2055.55L1732.12 2076.61C1729.06 2069.52 1724.32 2063.29 1718.31 2058.45C1712.96 2054.16 1706.84 2050.92 1700.29 2048.92C1694.26 2047.11 1688.01 2046.15 1681.71 2046.09C1672.67 2045.87 1663.72 2047.94 1655.68 2052.1C1648.46 2056 1642.17 2061.42 1637.24 2067.98C1632.29 2074.57 1628.52 2081.98 1626.13 2089.87C1623.67 2097.78 1622.41 2106.02 1622.4 2114.31C1622.4 2123.1 1623.85 2131.82 1626.68 2140.13C1629.41 2148.2 1633.57 2155.71 1638.97 2162.3C1644.15 2168.67 1650.62 2173.87 1657.96 2177.56C1665.52 2181.35 1673.88 2183.29 1682.33 2183.22C1688.79 2183.14 1695.19 2182.07 1701.32 2180.05C1707.94 2177.83 1714.1 2174.41 1719.48 2169.96C1725.38 2165.02 1730.1 2158.81 1733.29 2151.8L1765.54 2170.79C1761.27 2181.06 1754.36 2190.02 1745.51 2196.76C1736.37 2203.87 1726.03 2209.32 1714.99 2212.84C1704.17 2216.45 1692.84 2218.31 1681.44 2218.37C1667.6 2218.55 1653.91 2215.42 1641.53 2209.25C1629.62 2203.32 1618.99 2195.11 1610.25 2185.09C1601.38 2175.05 1594.37 2163.53 1589.53 2151.04C1584.77 2138.9 1582.33 2125.97 1582.35 2112.93Z" fill="white"/>
<path d="M1864.35 2217.06V2012.53H1904.12V2181.98H2008.39V2216.85L1864.35 2217.06Z" fill="white"/>
<path d="M2185.57 2218.51C2171.32 2218.9 2157.16 2216.09 2144.14 2210.29C2133.19 2205.16 2123.7 2197.38 2116.52 2187.64C2109.38 2177.82 2104.16 2166.74 2101.12 2154.98C2097.8 2142.53 2096.15 2129.69 2096.22 2116.8V2012.53H2135.65V2116.8C2135.62 2125.07 2136.54 2133.32 2138.41 2141.38C2140.04 2148.93 2142.86 2156.18 2146.76 2162.85C2150.37 2169.11 2155.6 2174.28 2161.89 2177.84C2169.13 2181.73 2177.28 2183.63 2185.5 2183.36C2193.88 2183.69 2202.18 2181.73 2209.53 2177.7C2215.77 2174.02 2220.97 2168.81 2224.65 2162.58C2228.63 2155.94 2231.45 2148.68 2233.01 2141.1C2234.78 2133.12 2235.66 2124.97 2235.63 2116.8V2012.53H2275.13V2116.8C2275.2 2130.07 2273.46 2143.29 2269.95 2156.09C2266.77 2167.86 2261.38 2178.92 2254.07 2188.68C2246.79 2198.12 2237.3 2205.64 2226.45 2210.57C2213.56 2216.14 2199.61 2218.85 2185.57 2218.51Z" fill="white"/>
<path d="M2552.02 2164.58C2552.35 2174.86 2549.22 2184.96 2543.11 2193.24C2536.86 2201.26 2528.53 2207.4 2519.01 2210.98C2508.53 2215.12 2497.34 2217.18 2486.08 2217.06H2387.2V2012.53H2496.71C2505.62 2012.32 2514.36 2014.98 2521.64 2020.13C2528.59 2025.18 2534.13 2031.93 2537.73 2039.74C2541.48 2047.51 2543.41 2056.03 2543.39 2064.66C2543.38 2074.38 2540.78 2083.91 2535.86 2092.28C2530.87 2101.05 2523.2 2107.97 2513.97 2112.03C2524.97 2115.1 2534.66 2121.67 2541.59 2130.75C2548.75 2140.54 2552.42 2152.45 2552.02 2164.58ZM2426.97 2046.5V2098.08H2480C2484.24 2098.11 2488.4 2097.01 2492.08 2094.91C2495.76 2092.75 2498.78 2089.65 2500.85 2085.93C2503.19 2081.71 2504.34 2076.94 2504.17 2072.12C2504.35 2067.34 2503.33 2062.59 2501.2 2058.31C2499.26 2054.73 2496.49 2051.68 2493.12 2049.4C2489.73 2047.21 2485.77 2046.06 2481.73 2046.09L2426.97 2046.5ZM2511.97 2156.98C2512.02 2152.19 2510.94 2147.46 2508.79 2143.17C2506.82 2139.21 2503.9 2135.8 2500.3 2133.23C2496.72 2130.73 2492.44 2129.43 2488.08 2129.5H2426.97V2183.71H2485.8C2490.41 2183.74 2494.93 2182.47 2498.85 2180.05C2502.76 2177.72 2506 2174.41 2508.24 2170.45C2510.68 2166.33 2511.97 2161.63 2511.97 2156.85V2156.98Z" fill="white"/>
</svg>
