<svg width="28" height="14" viewBox="0 0 28 14" fill="none" xmlns="http://www.w3.org/2000/svg">
<path id="Vector" d="M25.0941 0.896133L14.5533 10.886C14.3233 11.1051 14.0129 11.228 13.6894 11.228C13.3658 11.228 13.0554 11.1051 12.8254 10.886L2.28465 0.8983C2.05324 0.679316 1.74177 0.556611 1.41732 0.556611C1.09287 0.556611 0.7814 0.679316 0.549986 0.8983C0.436032 1.00528 0.345469 1.13314 0.283633 1.27435C0.221798 1.41555 0.189942 1.56725 0.189942 1.7205C0.189942 1.87375 0.221798 2.02545 0.283633 2.16666C0.345469 2.30786 0.436032 2.43572 0.549986 2.5427L11.0885 12.5304C11.7826 13.1867 12.7166 13.5544 13.6894 13.5544C14.6622 13.5544 15.5961 13.1867 16.2902 12.5304L26.8287 2.5427C26.943 2.43569 27.0339 2.3077 27.0959 2.16629C27.158 2.02488 27.1899 1.87293 27.1899 1.71942C27.1899 1.56591 27.158 1.41396 27.0959 1.27255C27.0339 1.13114 26.943 1.00314 26.8287 0.896133C26.5973 0.677148 26.2859 0.554444 25.9614 0.554444C25.637 0.554444 25.3255 0.677148 25.0941 0.896133Z" fill="#e5e7eb" 
 opacity="0.9"
/>
</svg>
