<svg width="20" height="14" viewBox="0 0 20 14" fill="none" xmlns="http://www.w3.org/2000/svg">
<path id="Vector" d="M18.19 6.28735L18.203 6.29489L18.2165 6.30163C18.848 6.61737 18.848 7.49147 18.2165 7.80721L18.203 7.81395L18.19 7.82149L9.19 13.0215L9.17612 13.0295L9.16279 13.0384C8.63121 13.3928 7.84014 12.9992 7.84014 12.2544V9.85442C7.84014 8.77828 7.01628 7.95442 5.94014 7.95442H1.54014C1.01628 7.95442 0.640137 7.57828 0.640137 7.05442C0.640137 6.53056 1.01628 6.15442 1.54014 6.15442H5.94014C7.01628 6.15442 7.84014 5.33056 7.84014 4.25442V1.85442C7.84014 1.10961 8.63121 0.71606 9.16279 1.07045L9.17612 1.07934L9.19 1.08735L18.19 6.28735Z" stroke="#5E5F66"/>
</svg>
