<svg width="20" height="40" viewBox="0 0 20 40" fill="none" xmlns="http://www.w3.org/2000/svg">
<path d="M19.4746 36.895L4.10529 21.2791C3.76821 20.9384 3.57915 20.4784 3.57915 19.9991C3.57915 19.5199 3.76821 19.0599 4.10529 18.7192L19.4712 3.10328C19.8081 2.76044 19.9969 2.299 19.9969 1.81834C19.9969 1.33767 19.8081 0.876236 19.4712 0.533401C19.3066 0.364578 19.1099 0.230412 18.8927 0.138805C18.6754 0.0471954 18.4421 0 18.2063 0C17.9705 0 17.7371 0.0471954 17.5199 0.138805C17.3026 0.230412 17.1059 0.364578 16.9413 0.533401L1.57541 16.146C0.565704 17.1744 0 18.558 0 19.9991C0 21.4403 0.565704 22.8239 1.57541 23.8523L16.9413 39.4649C17.106 39.6342 17.3029 39.7688 17.5205 39.8607C17.738 39.9526 17.9718 40 18.208 40C18.4441 40 18.6779 39.9526 18.8955 39.8607C19.113 39.7688 19.3099 39.6342 19.4746 39.4649C19.8115 39.1221 20.0002 38.6606 20.0002 38.1799C20.0002 37.6993 19.8115 37.2378 19.4746 36.895Z" fill="#BEBEBE"/>
</svg>
