<svg width="25" height="25" viewBox="0 0 25 25" fill="#e5e7eb" xmlns="http://www.w3.org/2000/svg">
<path fill-rule="evenodd" clip-rule="evenodd" d="M1.93994 3.05444C0.973443 3.05444 0.189941 3.83795 0.189941 4.80444V18.8044C0.189941 19.7709 0.973443 20.5544 1.93994 20.5544H22.4399C23.4064 20.5544 24.1899 19.7709 24.1899 18.8044V4.80444C24.1899 3.83795 23.4064 3.05444 22.4399 3.05444H1.93994ZM1.68994 4.80444C1.68994 4.66637 1.80187 4.55444 1.93994 4.55444H22.4399C22.578 4.55444 22.6899 4.66637 22.6899 4.80444V5.65601L12.3299 12.6561C12.2453 12.7132 12.1345 12.7132 12.0499 12.6561L1.68994 5.65605V4.80444ZM1.68994 7.46635V18.8044C1.68994 18.9425 1.80187 19.0544 1.93994 19.0544H22.4399C22.578 19.0544 22.6899 18.9425 22.6899 18.8044V7.46632L13.1697 13.8989C12.5777 14.2989 11.8021 14.2989 11.2102 13.8989L1.68994 7.46635Z" fill="#e5e7eb" fill-opacity="0.90"/>
</svg>
