<svg width="25" height="25" viewBox="0 0 25 25" fill="none" xmlns="http://www.w3.org/2000/svg">
<path fill-rule="evenodd" clip-rule="evenodd" d="M12.5701 2.55444C9.53258 2.55444 7.07019 5.01689 7.07019 8.05444C7.07019 9.94391 8.02295 11.6108 9.47426 12.601C6.1097 13.8335 3.68612 17.0174 3.57407 20.7821C3.56175 21.1962 3.88739 21.5418 4.30143 21.5541C4.71546 21.5664 5.06108 21.2408 5.07341 20.8268C5.19354 16.7902 8.50404 13.5544 12.57 13.5544C16.636 13.5544 19.9465 16.7902 20.0666 20.8268C20.079 21.2408 20.4246 21.5664 20.8386 21.5541C21.2526 21.5418 21.5783 21.1962 21.566 20.7821C21.4539 17.0174 19.0304 13.8336 15.6659 12.6011C17.1172 11.6109 18.07 9.94393 18.07 8.05444C18.07 5.01689 15.6076 2.55444 12.5701 2.55444ZM8.57019 8.05444C8.57019 5.84529 10.361 4.05444 12.5701 4.05444C14.7792 4.05444 16.57 5.84529 16.57 8.05444C16.57 10.2636 14.7792 12.0544 12.5701 12.0544C10.361 12.0544 8.57019 10.2636 8.57019 8.05444Z" fill="#e5e7eb" fill-opacity="0.90"/>
</svg>
