<svg width="99" height="50" viewBox="0 0 99 50" fill="none" xmlns="http://www.w3.org/2000/svg">
<g filter="url(#filter0_d_85_58)">
<path d="M79.9713 4H70.6401C70.6401 18.2996 81.7332 29.8937 95.4201 29.8937V20.1432C86.8859 20.1432 79.9713 12.9153 79.9713 4Z" fill="white"/>
</g>
<g filter="url(#filter1_d_85_58)">
<path d="M95.4201 29.9446V20.1941C81.7356 20.1941 70.6401 31.7858 70.6401 46.0878H79.9713C79.9713 37.1701 86.8882 29.9446 95.4201 29.9446Z" fill="white"/>
</g>
<g filter="url(#filter2_d_85_58)">
<path d="M19.0301 4H28.3612C28.3612 18.2996 17.2681 29.8937 3.5813 29.8937V20.1432C12.1154 20.1432 19.0301 12.9153 19.0301 4Z" fill="white"/>
</g>
<g filter="url(#filter3_d_85_58)">
<path d="M3.58008 29.9473V20.1968C17.2646 20.1968 28.36 31.7885 28.36 46.0905H19.0289C19.0289 37.1728 12.1119 29.9473 3.58008 29.9473Z" fill="white"/>
</g>
<g filter="url(#filter4_d_85_58)">
<path d="M34.0552 21.803H43.2021V41.183H34.0552V21.803ZM38.6286 6.37769C36.1021 6.37769 34.0552 8.51784 34.0552 11.1567C34.0552 13.7968 36.1033 15.9358 38.6286 15.9358C41.1552 15.9358 43.2021 13.7956 43.2021 11.1567C43.2021 8.51663 41.154 6.37769 38.6286 6.37769ZM58.6903 32.8076V24.9939H65.8633V15.9358H58.6903V6.37769H50.2593V36.7623C50.2593 39.561 52.4302 41.8294 55.1084 41.8294H66.6371V32.8064H58.6903V32.8076Z" fill="white"/>
</g>
<defs>
<filter id="filter0_d_85_58" x="67.0713" y="0.431192" width="31.9176" height="33.0314" filterUnits="userSpaceOnUse" color-interpolation-filters="sRGB">
<feFlood flood-opacity="0" result="BackgroundImageFix"/>
<feColorMatrix in="SourceAlpha" type="matrix" values="0 0 0 0 0 0 0 0 0 0 0 0 0 0 0 0 0 0 127 0" result="hardAlpha"/>
<feOffset/>
<feGaussianBlur stdDeviation="1.7844"/>
<feColorMatrix type="matrix" values="0 0 0 0 0.333333 0 0 0 0 0.94902 0 0 0 0 0.745098 0 0 0 0.13 0"/>
<feBlend mode="normal" in2="BackgroundImageFix" result="effect1_dropShadow_85_58"/>
<feBlend mode="normal" in="SourceGraphic" in2="effect1_dropShadow_85_58" result="shape"/>
</filter>
<filter id="filter1_d_85_58" x="67.0713" y="16.6253" width="31.9176" height="33.0314" filterUnits="userSpaceOnUse" color-interpolation-filters="sRGB">
<feFlood flood-opacity="0" result="BackgroundImageFix"/>
<feColorMatrix in="SourceAlpha" type="matrix" values="0 0 0 0 0 0 0 0 0 0 0 0 0 0 0 0 0 0 127 0" result="hardAlpha"/>
<feOffset/>
<feGaussianBlur stdDeviation="1.7844"/>
<feColorMatrix type="matrix" values="0 0 0 0 0.333333 0 0 0 0 0.94902 0 0 0 0 0.745098 0 0 0 0.13 0"/>
<feBlend mode="normal" in2="BackgroundImageFix" result="effect1_dropShadow_85_58"/>
<feBlend mode="normal" in="SourceGraphic" in2="effect1_dropShadow_85_58" result="shape"/>
</filter>
<filter id="filter2_d_85_58" x="0.012491" y="0.431192" width="31.9176" height="33.0314" filterUnits="userSpaceOnUse" color-interpolation-filters="sRGB">
<feFlood flood-opacity="0" result="BackgroundImageFix"/>
<feColorMatrix in="SourceAlpha" type="matrix" values="0 0 0 0 0 0 0 0 0 0 0 0 0 0 0 0 0 0 127 0" result="hardAlpha"/>
<feOffset/>
<feGaussianBlur stdDeviation="1.7844"/>
<feColorMatrix type="matrix" values="0 0 0 0 0.333333 0 0 0 0 0.94902 0 0 0 0 0.745098 0 0 0 0.13 0"/>
<feBlend mode="normal" in2="BackgroundImageFix" result="effect1_dropShadow_85_58"/>
<feBlend mode="normal" in="SourceGraphic" in2="effect1_dropShadow_85_58" result="shape"/>
</filter>
<filter id="filter3_d_85_58" x="0.0112703" y="16.628" width="31.9176" height="33.0314" filterUnits="userSpaceOnUse" color-interpolation-filters="sRGB">
<feFlood flood-opacity="0" result="BackgroundImageFix"/>
<feColorMatrix in="SourceAlpha" type="matrix" values="0 0 0 0 0 0 0 0 0 0 0 0 0 0 0 0 0 0 127 0" result="hardAlpha"/>
<feOffset/>
<feGaussianBlur stdDeviation="1.7844"/>
<feColorMatrix type="matrix" values="0 0 0 0 0.333333 0 0 0 0 0.94902 0 0 0 0 0.745098 0 0 0 0.13 0"/>
<feBlend mode="normal" in2="BackgroundImageFix" result="effect1_dropShadow_85_58"/>
<feBlend mode="normal" in="SourceGraphic" in2="effect1_dropShadow_85_58" result="shape"/>
</filter>
<filter id="filter4_d_85_58" x="30.4864" y="2.80888" width="39.7196" height="42.5893" filterUnits="userSpaceOnUse" color-interpolation-filters="sRGB">
<feFlood flood-opacity="0" result="BackgroundImageFix"/>
<feColorMatrix in="SourceAlpha" type="matrix" values="0 0 0 0 0 0 0 0 0 0 0 0 0 0 0 0 0 0 127 0" result="hardAlpha"/>
<feOffset/>
<feGaussianBlur stdDeviation="1.7844"/>
<feColorMatrix type="matrix" values="0 0 0 0 0.333333 0 0 0 0 0.94902 0 0 0 0 0.745098 0 0 0 0.13 0"/>
<feBlend mode="normal" in2="BackgroundImageFix" result="effect1_dropShadow_85_58"/>
<feBlend mode="normal" in="SourceGraphic" in2="effect1_dropShadow_85_58" result="shape"/>
</filter>
</defs>
</svg>
