<svg width="48" height="48" viewBox="0 0 24 24" fill="#25314C" xmlns="http://www.w3.org/2000/svg"><path d="M21.75 6v12A3.383 3.383 0 0 1 18 21.75h-6A3.383 3.383 0 0 1 8.25 18v-1a.75.75 0 0 1 1.5 0v1c0 1.577.673 2.25 2.25 2.25h6c1.577 0 2.25-.673 2.25-2.25V6c0-1.577-.673-2.25-2.25-2.25h-6c-1.577 0-2.25.673-2.25 2.25v1a.75.75 0 0 1-1.5 0V6A3.383 3.383 0 0 1 12 2.25h6A3.383 3.383 0 0 1 21.75 6Zm-9.28 8.47a.75.75 0 1 0 1.06 1.06l3-3a.771.771 0 0 0 .162-.244.751.751 0 0 0 0-.574.771.771 0 0 0-.162-.244l-3-3a.75.75 0 0 0-1.06 1.06l1.719 1.72H3a.75.75 0 0 0 0 1.5h11.189Z"></path></svg>